<svg id="Layer_1" data-name="Layer 1" xmlns="http://www.w3.org/2000/svg" viewBox="0 0 850.02 874.57"><defs><style>.cls-1{fill:#d9b54a;}.cls-2,.cls-4{fill:#efe9e4;}.cls-3{fill:none;}.cls-4{font-size:90px;font-family:Nickainley-Normal, Nickainley;}.cls-5{fill:#4a4e8c;}</style></defs><title>background-1</title><path class="cls-1" d="M1358.34,562.68c-2.38-19.25-5.13-37.71-9.9-56.19q-1.53-11-3.27-21.95a405.19,405.19,0,0,0-11.94-53.11,452.41,452.41,0,0,0-28.84-71.75,247.93,247.93,0,0,0-13.63-23.82h0a294.52,294.52,0,0,0-18.35-34.91c-7.14-11.61-15.67-22.13-24.09-32.86A93.89,93.89,0,0,0,1236.14,255c-6-5.24-12.54-10-19-14.85-2.35-3.18-5.24-7.36-8.23-10.22-3.5-3.35-8.5-6.74-11.8-9.29-4-3.12-8.12-6.64-12.52-9.39-2.21-1.39-4.53-2.62-6.81-3.89l-9.92-5.52c-13-9.87-26.39-18.76-41.55-25.4q-8.73-3.83-17.43-7.43l-12.63-7a70.29,70.29,0,0,0-35.11-11.21,71.11,71.11,0,0,0-19.77-1.63c-17.4-3.1-35-5.19-52.55-6.87-41.79-4-83.41-.24-124.69,7a332.48,332.48,0,0,0-48.84,12.39c-15.38,5.19-30.26,11.74-45.16,18.13q-11.61,5-22.78,10.85a283.24,283.24,0,0,0-37.2,23.62c-17.92,13.43-35.71,27-51.42,43s-29.39,33.8-42.29,51.88a256.09,256.09,0,0,0-22.34,37.68c-9.71,20.18-18.75,41.3-24.68,63a243,243,0,0,0-5.35,24.73c-2.72,16.69-5.1,33.56-6.3,50.45a376.49,376.49,0,0,0,.13,51.27c-.73,7-1.27,14-1.48,21-.79,27.65,2.93,55.22,7.28,82.45C570.91,684.54,587,728,606.51,768.83c3.94,8.25,8.24,16.34,13,24.16,8.47,14,18.65,26.64,28.71,39.48,15.92,20.3,35.57,35.82,56.46,50.94a250.41,250.41,0,0,0,46.89,26.25c23.85,10.4,47.77,20.26,72.8,27.42,26.27,7.51,53.08,11.48,80.22,14.57a245.26,245.26,0,0,0,56.22.25c7.62-.89,15.14-1.82,22.58-2.93,3.88.34,7.78.63,11.66.83a214.93,214.93,0,0,0,28.26-.41,423.48,423.48,0,0,0,50.4-6.95,206.63,206.63,0,0,0,27.2-7.5,382.2,382.2,0,0,0,46.39-19.7c21.15-10.75,40.45-25.69,58.38-41,11.89-10.16,22.33-21.8,32-34.05,4.61-3.6,9.09-7.32,13.47-11,11.29-9.56,19.92-22,28.72-33.71a152.34,152.34,0,0,0,15.58-26.51q2.13-3,4.23-5.92a308.58,308.58,0,0,0,21.56-35.1c3.23-6.19,6.17-12.51,8.9-18.93,5.73-13.49,11.8-26.91,16.32-40.87,6.78-21,9.53-42.56,12-64.41A173.72,173.72,0,0,0,1358.34,562.68Z" transform="translate(-523.99 -122.51)"/><path class="cls-2" d="M1272.43,571.18a39.11,39.11,0,0,1-11.6,1.69c-1.95,0-3.88,0-5.8-.12s-3.82-.25-5.71-.48c-3.78-.44-7.62-1.3-11.44-1.6a83.69,83.69,0,0,0-11.53-.09c-1.92.08-3.85.22-5.77.25s-3.85,0-5.77,0c-3.85,0-7.69,0-11.52-.29s-7.66-.64-11.49-1.14-7.63-1.09-11.43-2l0-.42c3.87-.52,7.72-.73,11.57-.87s7.69-.14,11.53,0,7.66.47,11.49.81c1.91.17,3.82.33,5.73.57s3.82.54,5.73.8a83.83,83.83,0,0,0,11.49,1c3.85.06,7.67-.42,11.57-.51a50.5,50.5,0,0,1,5.78.25c1.92.16,3.81.37,5.7.57,3.78.45,7.52.8,11.4,1.14Z" transform="translate(-523.99 -122.51)"/><path class="cls-2" d="M976.68,249.82c-.63,3.75-.23,7.27.17,11,.09.93.16,1.89.22,2.85s.07,2,0,2.91a56,56,0,0,1-.27,5.64c-.37,3.76-1.13,7.52-1.35,11.28a80.75,80.75,0,0,0,.19,11.32c.12,1.89.3,3.78.38,5.67s.11,3.78.13,5.67c0,3.77.09,7.55-.11,11.32s-.55,7.54-1,11.3c-.11.94-.26,1.88-.4,2.82l-.21,1.4-.22,1.33c-.2,1.59.35,3.53.43,5.47l-.41.09c-.75-1.72-1.83-3.3-2.15-5.51-.06-.6-.07-1-.11-1.5l-.08-1.42c0-.94-.1-1.88-.13-2.83-.14-3.77-.19-7.54-.13-11.31s.36-7.52.62-11.28c.14-1.88.26-3.76.46-5.64s.46-3.76.68-5.64a80.59,80.59,0,0,0,.75-11.29c0-3.77-.61-7.56-.78-11.34-.08-1.89-.06-3.77,0-5.66.05-1,.1-1.82.12-2.75l.07-2.8c0-.95.08-1.9.16-2.87a22.5,22.5,0,0,1,.4-2.92,14.88,14.88,0,0,1,2.12-5.49Z" transform="translate(-523.99 -122.51)"/><path class="cls-2" d="M974,771a2.71,2.71,0,0,1,1.49.64,3.3,3.3,0,0,1,1,1.44,18.28,18.28,0,0,1,.6,3c.3,1.9.51,3.81.72,5.72s.33,3.82.43,5.73.16,3.83.09,5.74c-.13,3.84-.66,7.69-.65,11.52a84.77,84.77,0,0,0,.87,11.46c.25,1.91.54,3.81.74,5.72s.35,3.82.5,5.73c.29,3.82.59,7.64.67,11.46s0,7.66-.18,11.5c-.09,1.92-.2,3.84-.37,5.76-.07,1-.17,1.92-.27,2.88l-.17,1.45-.1.7c-.06.06.07.32.16.57l-.37.19c-.11-.17-.35-.28-.47-.7l-.15-.73-.27-1.43c-.17-1-.34-1.9-.48-2.85-.31-1.91-.56-3.81-.78-5.72-.46-3.82-.78-7.63-1-11.46s-.17-7.65-.16-11.48c0-1.92,0-3.83.09-5.75s.22-3.84.33-5.76a84.75,84.75,0,0,0,.06-11.49c-.27-3.82-1.07-7.63-1.48-11.44-.2-1.91-.3-3.82-.32-5.74s0-3.82,0-5.74.14-3.84.31-5.76.76-3.73-1-4.75Z" transform="translate(-523.99 -122.51)"/><path class="cls-2" d="M645.43,565.31a90,90,0,0,1-15.16,1.76,60.07,60.07,0,0,1-7.59-.06c-2.53-.17-5.07-.56-7.6-.73-5.07-.23-10.12-.13-15.18.14s-10.11.8-15.17,1.13-10.11.49-15.17.7-10.11.3-15.17.27c-10.12-.1-20.24-.39-30.38-1.31l0-.42a303.3,303.3,0,0,1,30.33-2.57c5-.21,10.12-.29,15.18-.22s10.12.07,15.18.23,10.13.53,15.2.66a147.67,147.67,0,0,0,15.17-.35c2.53-.23,5.05-.67,7.58-.89a60.14,60.14,0,0,1,7.59-.21,91.05,91.05,0,0,1,15.2,1.46Z" transform="translate(-523.99 -122.51)"/><path class="cls-2" d="M1374,575.84a33.72,33.72,0,0,1-11.29,1.86c-1.9,0-3.78,0-5.65-.12s-3.71-.24-5.54-.45c-3.67-.4-7.44-1.15-11.16-1.43a87.66,87.66,0,0,0-11.23,0c-1.88.08-3.76.21-5.63.24s-3.75,0-5.62,0c-3.75,0-7.49-.09-11.21-.37a131,131,0,0,1-22.28-3.43l0-.42a112.72,112.72,0,0,1,11.27-.65c3.73,0,7.49-.09,11.22.07s7.46.52,11.18.88c1.86.18,3.73.36,5.58.6s3.71.55,5.57.82a76.22,76.22,0,0,0,11.17,1c3.76,0,7.46-.56,11.26-.7a46.1,46.1,0,0,1,5.65.23c1.86.16,3.71.37,5.54.58,3.67.44,7.29.76,11.08,1Z" transform="translate(-523.99 -122.51)"/><path class="cls-2" d="M1130.62,700.39a2,2,0,0,0-.17,1.22,1.42,1.42,0,0,0,.67.76c.33.23.75.44,1.21.72s.83.58,1.25.87c1.62,1.12,3.17,2.31,4.72,3.51s3,2.45,4.52,3.72,2.93,2.58,4.3,4c2.74,2.8,5.21,5.9,8,8.59a88.92,88.92,0,0,0,9.06,7.44c1.57,1.16,3.18,2.29,4.73,3.49s3.06,2.44,4.57,3.68c3,2.48,6,5,8.91,7.6s5.68,5.32,8.4,8.13c1.37,1.4,2.72,2.82,4,4.29.67.72,1.31,1.46,2,2.21a4.4,4.4,0,0,1,.94,1.41,1.94,1.94,0,0,1-.27,1.69l-.38-.15c.23-1-.34-1.39-1.18-1.9s-1.64-1.08-2.45-1.64c-1.62-1.1-3.21-2.25-4.79-3.42s-3.13-2.37-4.67-3.58-3.07-2.45-4.55-3.72c-3-2.55-5.76-5.27-8.58-8-1.4-1.36-2.81-2.72-4.17-4.12s-2.68-2.86-4-4.29a86.33,86.33,0,0,0-8.43-8.14c-3-2.51-6.36-4.6-9.46-7q-2.32-1.8-4.45-3.81c-1.44-1.32-2.84-2.68-4.22-4.06s-2.73-2.81-4-4.28c-.32-.35-.7-.76-.95-1.07s-.69-.67-1.06-1.13a2.51,2.51,0,0,1-.63-1.77,2.45,2.45,0,0,1,.81-1.49Z" transform="translate(-523.99 -122.51)"/><path class="cls-2" d="M753.28,562.24a84,84,0,0,1-11.18,1.56c-1.86.14-3.73.25-5.6.3a55.08,55.08,0,0,1-5.6,0c-3.74-.22-7.48-.83-11.21-.91a80.79,80.79,0,0,0-11.2.62c-1.86.2-3.73.45-5.59.61s-3.73.26-5.6.37c-3.73.2-7.46.42-11.2.4a167.4,167.4,0,0,1-22.42-1.49l0-.42c3.72-.81,7.45-1.31,11.18-1.74s7.47-.66,11.2-.79,7.47,0,11.2.11c1.87,0,3.74.1,5.61.22s3.74.3,5.61.45a80.75,80.75,0,0,0,11.21.32c3.73-.18,7.45-.9,11.18-1.22,1.87-.16,3.74-.21,5.6-.19s3.74.06,5.61.16a81,81,0,0,1,11.22,1.26Z" transform="translate(-523.99 -122.51)"/><path class="cls-2" d="M821.22,716.63a102.31,102.31,0,0,1-7,9.13c-1.23,1.45-2.49,2.89-3.77,4.29s-2.6,2.79-4,4.1c-2.79,2.61-5.86,5-8.52,7.72a80.65,80.65,0,0,0-7.34,8.81c-2.26,3.1-4.57,6.17-7.09,9s-5,5.8-7.66,8.55-5.42,5.41-8.26,8c-1.42,1.29-2.86,2.56-4.34,3.8-.73.62-1.49,1.23-2.23,1.83l-.57.45-.29.22-.18.15a.92.92,0,0,1-.35.15,1.92,1.92,0,0,1-.88-.1c-.24-.07-.46-.15-.68-.19v-.42c.27,0,.52,0,.75-.07a1.27,1.27,0,0,0,.55-.11c-.13.08.13-.25.24-.42l.41-.6c.55-.79,1.1-1.58,1.68-2.35,1.13-1.55,2.3-3.07,3.49-4.57,2.38-3,4.85-5.92,7.4-8.76s5.29-5.5,8-8.18c1.37-1.33,2.69-2.71,4.08-4s2.82-2.6,4.23-3.9a83.86,83.86,0,0,0,8-8.19c2.48-2.91,4.57-6.18,7-9.17a53.76,53.76,0,0,1,3.84-4.28c1.34-1.37,2.71-2.7,4.13-4a73.76,73.76,0,0,1,9.07-7.18Z" transform="translate(-523.99 -122.51)"/><path class="cls-2" d="M749.27,336.28a47.44,47.44,0,0,1,9.62,6.87q2.19,2,4.23,4.07t3.88,4.35c2.44,3,4.61,6.26,7.29,9.09a85.48,85.48,0,0,0,8.55,7.91c1.5,1.25,3,2.46,4.49,3.74s2.9,2.6,4.32,3.92c2.85,2.63,5.71,5.26,8.41,8.06s5.29,5.68,7.81,8.65c1.26,1.48,2.5,3,3.7,4.53a15.2,15.2,0,0,1,1.79,2.53,3,3,0,0,1,.29,1.76,3.13,3.13,0,0,1-.74,1.45l-.35-.21a2.66,2.66,0,0,0,.16-1.28,1.87,1.87,0,0,0-.52-1,25,25,0,0,0-2.13-1.76c-1.54-1.2-3-2.45-4.52-3.71-3-2.52-5.84-5.14-8.63-7.83s-5.42-5.57-8-8.43c-1.32-1.42-2.63-2.85-3.9-4.33s-2.49-3-3.74-4.49a85.51,85.51,0,0,0-7.89-8.57c-2.84-2.63-6.05-5-8.88-7.68-1.42-1.33-2.76-2.74-4-4.18s-2.57-2.87-3.83-4.33c-2.51-2.93-5.06-5.78-7.58-8.82Z" transform="translate(-523.99 -122.51)"/><path class="cls-2" d="M1190.88,346a81.67,81.67,0,0,1-7.22,8.75q-1.94,2.07-3.94,4c-1.33,1.32-2.72,2.59-4.18,3.78-2.91,2.37-6.1,4.46-8.92,6.94a81.07,81.07,0,0,0-7.87,8.07c-1.24,1.41-2.45,2.86-3.73,4.24s-2.58,2.74-3.89,4.08c-2.63,2.69-5.24,5.38-8,7.91s-5.64,5-8.59,7.3-6,4.62-9.17,6.68l-.29-.31c2.25-3.09,4.71-5.94,7.21-8.76s5.12-5.51,7.8-8.14,5.53-5.08,8.36-7.54c1.42-1.23,2.84-2.46,4.3-3.65s3-2.31,4.46-3.47a81,81,0,0,0,8.51-7.38c2.65-2.67,4.92-5.73,7.46-8.5q1.92-2.07,4-3.94t4.25-3.7a83.65,83.65,0,0,1,9.16-6.69Z" transform="translate(-523.99 -122.51)"/><path class="cls-2" d="M751,791.06a33.47,33.47,0,0,1-5.38,9.07c-1.09,1.37-2.24,2.68-3.41,3.94s-2.38,2.48-3.63,3.63c-2.5,2.27-5.25,4.52-7.71,6.93a70.2,70.2,0,0,0-6.76,7.83c-1,1.37-2,2.77-3.11,4.12l-3.18,4-1.56,2-.77,1c-.26.33-.58.75-.89,1.1a30.37,30.37,0,0,1-4,3.72c-1.34,1.08-2.62,2.09-3.76,3.16l-.41.41-.49.49a13.7,13.7,0,0,1-1.11,1c-.74.58-1.45,1-2.06,1.52a8.7,8.7,0,0,0-1.58,1.48,5.37,5.37,0,0,0-.55.85,5.44,5.44,0,0,1-.9,1.41,4.66,4.66,0,0,1-2.76,1.41c-.92.15-1.77.14-2.63.24l-.13-.39c.77-.46,1.63-.77,2.33-1.16a3.07,3.07,0,0,0,1.48-1.37,3.17,3.17,0,0,0,.26-.89,7.12,7.12,0,0,1,.52-1.49,9.84,9.84,0,0,1,1.72-2.48c.64-.7,1.27-1.3,1.81-1.88a10.57,10.57,0,0,0,.74-.83l.36-.48c.15-.18.29-.38.44-.55a33.78,33.78,0,0,1,3.85-3.82c1.3-1.13,2.54-2.18,3.63-3.27.28-.28.5-.53.79-.85l.87-1c.59-.66,1.19-1.29,1.79-1.93,1.2-1.26,2.41-2.51,3.69-3.69s2.61-2.3,3.92-3.44a64.66,64.66,0,0,0,7.43-7.18,48.3,48.3,0,0,0,3.11-4.12c1-1.41,2-2.9,3-4.26a44,44,0,0,1,3.5-3.83c1.22-1.21,2.46-2.39,3.69-3.56,2.5-2.32,4.89-4.66,7.42-7.1Z" transform="translate(-523.99 -122.51)"/><path class="cls-2" d="M864.93,757.09c-.51,1.52-1.1,3-1.68,4.41s-1.17,2.87-1.78,4.29-1.23,2.83-1.89,4.23a39.65,39.65,0,0,1-2.15,4.14c-1.6,2.69-3.59,5.21-5.16,7.91a55.42,55.42,0,0,0-3.86,8.52c-.55,1.46-1.06,2.95-1.66,4.39s-1.22,2.86-1.86,4.27c-1.29,2.79-2.54,5.79-4.11,8.5s-3.23,5.32-4.86,7.92q-1.21,2-2.4,3.94l-2.32,4.08-.4-.12a32.91,32.91,0,0,1,2.17-9.34,82.83,82.83,0,0,1,3.9-8.6c.72-1.37,1.44-2.72,2.19-4s1.51-2.71,2.3-4.06,1.56-2.71,2.41-4,1.74-2.62,2.62-3.92a56.21,56.21,0,0,0,4.7-8.11c1.34-2.81,2.11-5.88,3.22-8.8a38.13,38.13,0,0,1,2-4.27c.73-1.39,1.5-2.76,2.35-4.1a39.61,39.61,0,0,1,2.73-3.9,27.7,27.7,0,0,1,3.25-3.53Z" transform="translate(-523.99 -122.51)"/><path class="cls-2" d="M1234.11,690.32a2.56,2.56,0,0,0-.22-1,.93.93,0,0,0-.54-.5,8.52,8.52,0,0,0-2-.25,3.74,3.74,0,0,1-.76-.15l-.64-.21-1.11-.4q-1.11-.4-2.19-.84c-1.45-.58-2.89-1.2-4.3-1.86a38.69,38.69,0,0,1-4.13-2.17c-2.68-1.61-5.17-3.59-7.91-5.08a55.51,55.51,0,0,0-8.59-3.71c-1.47-.53-3-1-4.42-1.58s-2.89-1.19-4.32-1.8c-2.86-1.24-5.73-2.47-8.49-3.9s-5.47-3-8.12-4.65c-1.33-.83-2.65-1.68-3.94-2.58-.32-.23-.65-.44-1-.68l-.88-.63a12.78,12.78,0,0,0-2.13-.68l0-.41a8.75,8.75,0,0,1,2.5-.22l.38.09.29.09.57.17,1.12.35c1.5.48,3,1,4.45,1.55q4.4,1.65,8.64,3.61c2.82,1.32,5.54,2.85,8.27,4.36,1.36.76,2.73,1.52,4.06,2.33s2.64,1.7,4,2.54a53.6,53.6,0,0,0,8.17,4.55c2.85,1.27,5.94,2.05,8.86,3.18a39.78,39.78,0,0,1,4.24,2c1.38.72,2.75,1.48,4.09,2.27.67.4,1.34.81,2,1.23l1,.64a3.79,3.79,0,0,0,.77.47,6.63,6.63,0,0,1,2.38,1.27,2.08,2.08,0,0,1,.61,1.46,3,3,0,0,1-.34,1.3Z" transform="translate(-523.99 -122.51)"/><path class="cls-2" d="M1125.22,299.54a27,27,0,0,0-3,3.57,12.55,12.55,0,0,0-1.09,1.83c-.34.73-.68,1.46-1.05,2.17-.72,1.42-1.48,2.83-2.28,4.21a41.78,41.78,0,0,1-2.59,4c-1.88,2.59-4.11,5-5.88,7.63a57.54,57.54,0,0,0-4.56,8.43c-.68,1.45-1.32,2.94-2,4.37s-1.47,2.84-2.23,4.24c-1.53,2.81-3,5.63-4.75,8.32s-3.54,5.32-5.47,7.88c-1,1.28-2,2.55-3,3.79a25.58,25.58,0,0,1-3.34,3.59l-.34-.25c.68-1.43,1.22-3,1.87-4.44s1.29-3,2-4.39c1.38-2.89,2.88-5.72,4.47-8.49s3.4-5.4,5.18-8c.9-1.33,1.79-2.65,2.74-3.94s2-2.54,2.94-3.82a58.47,58.47,0,0,0,5.36-7.94c1.55-2.79,2.63-5.86,4.06-8.73a41.59,41.59,0,0,1,2.38-4.15q1.29-2,2.68-4c.46-.66,1-1.29,1.44-1.93a9.5,9.5,0,0,1,1.87-1.92,12.65,12.65,0,0,1,4.42-2.42Z" transform="translate(-523.99 -122.51)"/><path class="cls-2" d="M708,406a16.08,16.08,0,0,0,3.48,2.58c1.25.65,2.55,1.18,3.92,1.73a44.19,44.19,0,0,1,4.22,1.83c.74.39,1.37.75,2,1.15s1.27.8,1.89,1.24c2.47,1.74,4.73,3.82,7.28,5.44a51.29,51.29,0,0,0,8,4.12c1.39.6,2.81,1.16,4.18,1.81s2.72,1.32,4.06,2c2.68,1.38,5.37,2.74,7.94,4.31s5.08,3.24,7.53,5a74.18,74.18,0,0,1,7.1,5.76l-.2.36a71.81,71.81,0,0,1-8.54-3.29c-2.77-1.23-5.47-2.58-8.12-4s-5.16-3.11-7.69-4.75c-1.27-.83-2.54-1.64-3.77-2.52s-2.42-1.82-3.64-2.72a50.89,50.89,0,0,0-7.59-4.94c-2.67-1.4-5.61-2.33-8.36-3.61-.69-.32-1.36-.66-2-1s-1.33-.76-1.9-1.1c-1.22-.71-2.54-1.39-3.87-2.18a18.11,18.11,0,0,1-3.84-2.88,9.5,9.5,0,0,1-2.49-4.13Z" transform="translate(-523.99 -122.51)"/><path class="cls-2" d="M912.35,340.27c1.23-1.27.44-2.17-.41-3.6a4.68,4.68,0,0,1-.32-.67l-.24-.55-.44-1.12c-.29-.75-.59-1.5-.85-2.25-.52-1.52-1-3-1.45-4.57a37.6,37.6,0,0,1-1.08-4.67c-.54-3.16-.65-6.41-1.29-9.54a59.41,59.41,0,0,0-2.7-9.17c-.54-1.51-1.14-3-1.63-4.52s-1-3.05-1.4-4.58c-.89-3.06-1.8-6.11-2.49-9.22s-1.26-6.23-1.73-9.39c-.14-.79-.23-1.58-.34-2.37l-.08-.6c0-.24-.06-.47-.07-.69,0-.44,0-.84,0-1.22a4.68,4.68,0,0,0-.32-1.93,2.57,2.57,0,0,0-1.62-1.19l0-.41a3.21,3.21,0,0,1,2.63.7,5.35,5.35,0,0,1,1.36,2.47c.13.41.24.8.36,1.14.06.18.11.33.17.48l.22.56c.28.75.58,1.5.84,2.25,1.1,3,2,6.07,2.88,9.15s1.4,6.22,2,9.35c.3,1.57.6,3.14.83,4.72s.39,3.18.59,4.77a57.22,57.22,0,0,0,1.79,9.39c.89,3.06,2.3,6,3.35,9a43.51,43.51,0,0,1,1.3,4.59c.37,1.54.71,3.09,1,4.66.16.78.28,1.57.41,2.36l.2,1.18.08.59a2.34,2.34,0,0,0,.08.46,7.36,7.36,0,0,1,.39,2.68,2.48,2.48,0,0,1-.64,1.41,2.68,2.68,0,0,1-1.17.71Z" transform="translate(-523.99 -122.51)"/><path class="cls-2" d="M1256.66,489.88a1.78,1.78,0,0,0,.14,1.41,5.76,5.76,0,0,1,.62,1.81l.08.63-.88.25c-1.51.42-3,.78-4.54,1.1s-3,.67-4.54,1a61,61,0,0,1-9.19,1.28,52.29,52.29,0,0,0-9.27,1.11,69.36,69.36,0,0,0-8.92,2.82c-2.92,1.13-5.9,2-8.9,2.89s-6,1.76-9,2.36c-1.53.33-3.08.6-4.62.83s-3.11.45-4.67.64-3.13.3-4.71.38c-.79,0-1.54.09-2.43.06a3.54,3.54,0,0,1-1.36-.34,2.67,2.67,0,0,1-1-.91l.29-.3a2.11,2.11,0,0,0,1.92.22c.66-.19,1.42-.52,2.16-.76,1.48-.53,3-1,4.44-1.48,3-.94,5.94-1.82,8.94-2.62,1.5-.41,3-.75,4.52-1.09l4.58-.93c3-.6,6.11-1.21,9.24-1.54a92.41,92.41,0,0,0,9.26-1.45,77.41,77.41,0,0,0,9-2.75,43.27,43.27,0,0,1,4.55-1.26c1.54-.31,3.1-.51,4.66-.7a58.28,58.28,0,0,1,9.44-.31l-.8.88a6.65,6.65,0,0,0,0-1.56,3,3,0,0,1,.13-1,1.94,1.94,0,0,1,.55-.86Z" transform="translate(-523.99 -122.51)"/><path class="cls-2" d="M1035.42,770.9a35.87,35.87,0,0,1,2.21,4c.67,1.34,1.27,2.7,1.84,4.08s1.09,2.76,1.57,4.16a35.36,35.36,0,0,1,1.25,4.27c.64,2.91.91,5.94,1.69,8.8a50.57,50.57,0,0,0,3.16,8.33c.61,1.36,1.28,2.7,1.86,4.07s1.11,2.76,1.63,4.15c1,2.77,2.11,5.55,2.95,8.39s1.56,5.73,2.16,8.65a70.59,70.59,0,0,1,1.34,8.91l-.39.12a70.37,70.37,0,0,1-4.07-8c-1.21-2.73-2.29-5.5-3.27-8.3s-1.71-5.68-2.46-8.55c-.38-1.43-.76-2.87-1.07-4.32s-.57-2.93-.85-4.4a50.51,50.51,0,0,0-2.27-8.61c-1-2.79-2.56-5.41-3.72-8.15a34.77,34.77,0,0,1-1.46-4.2c-.42-1.42-.8-2.86-1.14-4.31s-.64-2.9-.86-4.39a35.15,35.15,0,0,1-.5-4.51Z" transform="translate(-523.99 -122.51)"/><path class="cls-2" d="M753.74,621.42a31.06,31.06,0,0,1-3.69,2c-1.24.62-2.51,1.16-3.79,1.66s-2.56,1-3.87,1.39a29.61,29.61,0,0,1-4,1.06c-2.7.52-5.52.66-8.18,1.32a42.31,42.31,0,0,0-7.74,2.78c-1.26.56-2.51,1.16-3.78,1.68s-2.56,1-3.85,1.45c-2.58.92-5.15,1.86-7.79,2.58-1.32.35-2.65.69-4,1-.65.13-1.38.31-2.12.44a20.74,20.74,0,0,1-2.2.22,27.32,27.32,0,0,1-8.46-1v-.42c2.75-.68,5.47-1,7.94-1.78.62-.17,1.23-.38,1.82-.59s1.16-.44,1.83-.69c1.28-.5,2.57-.94,3.87-1.37,2.61-.84,5.29-1.46,8-2.09,1.33-.32,2.67-.63,4-.89s2.73-.44,4.1-.66a42.45,42.45,0,0,0,8-1.89c2.59-.9,5-2.32,7.57-3.35a30.27,30.27,0,0,1,3.91-1.28c1.32-.36,2.66-.68,4-1s2.71-.52,4.09-.68a32,32,0,0,1,4.19-.31Z" transform="translate(-523.99 -122.51)"/><path class="cls-2" d="M1206,770.61a15.81,15.81,0,0,1,7.58,3.31,31.82,31.82,0,0,1,3.1,2.63,31.37,31.37,0,0,1,2.7,2.85c.83,1,1.6,2,2.48,3s1.76,2,2.72,2.93a41.9,41.9,0,0,0,6.27,4.87c1.11.75,2.25,1.46,3.32,2.25s2.11,1.6,3.14,2.43c2.06,1.66,4.13,3.31,6,5.13s3.74,3.73,5.49,5.72c.45.48.87,1,1.3,1.5a10.78,10.78,0,0,1,1.3,1.77,7,7,0,0,1,1,4.19l-.41.08a8.39,8.39,0,0,0-2.25-2.93,16.05,16.05,0,0,0-1.48-1.05c-.55-.37-1.11-.73-1.65-1.12-2.19-1.52-4.28-3.16-6.29-4.87s-3.84-3.62-5.69-5.5c-.93-.94-1.86-1.88-2.74-2.87s-1.73-2-2.6-3a35.65,35.65,0,0,0-5.64-5.55,32.21,32.21,0,0,0-3.31-2.2c-.57-.33-1.16-.7-1.75-1.07s-1.13-.78-1.67-1.2a26.07,26.07,0,0,1-2.91-2.73l-2.63-2.83c-.87-.93-1.74-1.84-2.65-2.73s-1.89-1.73-2.94-2.61Z" transform="translate(-523.99 -122.51)"/><path class="cls-2" d="M1038.89,317.24a5.61,5.61,0,0,0-.69,3,27,27,0,0,1-.23,3.42c-.14,1.14-.34,2.27-.59,3.38a19,19,0,0,1-1,3.28c-.85,2.13-2.12,4.13-2.88,6.27a30.17,30.17,0,0,0-1.54,6.63c-.17,1.13-.29,2.28-.51,3.4s-.48,2.22-.75,3.33c-.53,2.2-1.06,4.4-1.79,6.53s-1.58,4.23-2.53,6.29a49.16,49.16,0,0,1-3.22,6.12l-.4-.11a38,38,0,0,1,.48-6.94,55,55,0,0,1,1.43-6.68,64.9,64.9,0,0,1,2.29-6.4,53.34,53.34,0,0,1,2.83-6.22,27.27,27.27,0,0,0,2.42-6.34c.52-2.2.5-4.55.82-6.78a38.51,38.51,0,0,1,1.75-6.5c.4-1.09.73-2,1.22-3.21a7.14,7.14,0,0,1,1-1.67,3.81,3.81,0,0,1,1.58-1.11Z" transform="translate(-523.99 -122.51)"/><path class="cls-2" d="M1096.62,122.61a22.89,22.89,0,0,1-.37,6.43,31.11,31.11,0,0,1-.71,3.07,17.21,17.21,0,0,1-1.09,3c-.9,1.9-2.21,3.66-3,5.59a23.52,23.52,0,0,0-1.53,6.07,53.86,53.86,0,0,1-1,6.16c-.44,2-.83,4-1.38,6s-1.17,3.91-1.87,5.86c-.16.46-.37,1.07-.6,1.59a13.88,13.88,0,0,1-.79,1.48,28.79,28.79,0,0,1-1.86,2.66l-.4-.13a25.47,25.47,0,0,1,.25-3.22c0-.52.1-1,.13-1.5s0-.9.05-1.47a36.27,36.27,0,0,1,.78-6.34,26.64,26.64,0,0,1,.85-3.06c.33-1,.69-2,1.07-3s.74-2,1.2-2.93,1-1.89,1.46-2.83a25.64,25.64,0,0,0,2.42-5.79c.54-2,.58-4.2,1-6.25a36.09,36.09,0,0,1,5-11.47Z" transform="translate(-523.99 -122.51)"/><path class="cls-2" d="M878.67,949.9a24.37,24.37,0,0,1,.11,6.2c-.1,1-.23,2-.41,3a17.75,17.75,0,0,1-.75,2.93c-.69,1.91-1.77,3.73-2.31,5.67a24.08,24.08,0,0,0-.86,6c-.05,1-.05,2.06-.15,3.07s-.23,2-.37,3a56.62,56.62,0,0,1-1.09,6,47.91,47.91,0,0,1-1.9,5.76,33.84,33.84,0,0,1-2.73,5.58l-.4-.09a34,34,0,0,1-.06-6.21,48.31,48.31,0,0,1,.76-6,57.1,57.1,0,0,1,1.58-5.83c.3-1,.58-1.93,1-2.88s.79-1.89,1.18-2.83a21.84,21.84,0,0,0,1.77-5.8c.3-2,.07-4.1.23-6.13a16.49,16.49,0,0,1,.52-3c.24-1,.53-2,.86-2.91a24.83,24.83,0,0,1,2.65-5.6Z" transform="translate(-523.99 -122.51)"/><path class="cls-2" d="M1243.17,296.88a14.41,14.41,0,0,1-2,3.42,16.85,16.85,0,0,1-2.8,2.8c-.94.78-1.76,1.53-2.6,2.36a26.57,26.57,0,0,1-2.8,2.47c-2,1.52-4.28,2.75-6.18,4.37a35.61,35.61,0,0,0-5.14,5.48c-.79,1-1.54,2-2.36,3s-1.67,1.88-2.52,2.79c-1.72,1.83-3.42,3.66-5.28,5.33s-3.82,3.24-5.86,4.72c-.5.38-1,.74-1.54,1.1s-1,.68-1.63,1.09c-1.21.72-2.08.79-1.91,2.17l-.38.17a2.31,2.31,0,0,1-.49-1,2.08,2.08,0,0,1,.15-1.25,8.53,8.53,0,0,1,1.25-1.73l.53-.72.58-.74c.39-.5.78-1,1.19-1.48,1.6-1.94,3.29-3.8,5-5.57s3.71-3.35,5.64-5c1-.8,1.92-1.6,2.93-2.36s2.06-1.45,3.09-2.18a34.74,34.74,0,0,0,5.78-4.81c1.73-1.8,3.09-4,4.73-5.92a24.74,24.74,0,0,1,2.66-2.66,18.22,18.22,0,0,1,3.27-2.3c1.13-.62,2.11-1.13,3.14-1.77s2-1.36,3.15-2.05Z" transform="translate(-523.99 -122.51)"/><path class="cls-2" d="M979.55,875.26a20.3,20.3,0,0,1,1,3c.27,1,.47,2,.64,3s.31,2,.4,3a16.43,16.43,0,0,1,.08,3.06c-.12,2.06-.65,4.16-.64,6.21a25.88,25.88,0,0,0,.8,6.15c.21,1,.47,2.05.62,3.08s.24,2.08.33,3.12a38.85,38.85,0,0,1,0,6.29c-.12,1.05-.27,2.1-.47,3.13s-.5,2.07-.79,3.08-.7,2-1.12,3a25,25,0,0,1-1.53,2.84l-.4-.1a24.37,24.37,0,0,1-.15-3.16c-.06-1-.06-2.06,0-3.07s0-2,0-3,0-2,.06-3,.08-2,.2-3,.16-2,.27-3a58.57,58.57,0,0,1,.7-6.09,29.4,29.4,0,0,0,.29-3.08,21,21,0,0,0-.15-3.07c-.26-2-1.07-4-1.48-6.06a25.56,25.56,0,0,1-.26-6.18,22.88,22.88,0,0,1,1.2-6.23Z" transform="translate(-523.99 -122.51)"/><path class="cls-2" d="M1077.17,723.21a23.34,23.34,0,0,1,2.65,2.39c.83.83,1.59,1.71,2.33,2.61s1.43,1.82,2.09,2.76a22.24,22.24,0,0,1,1.8,3c1,2.07,1.74,4.36,2.9,6.36a29.76,29.76,0,0,0,4.19,5.52c.78.87,1.6,1.71,2.34,2.6s1.45,1.81,2.15,2.73c1.39,1.84,2.8,3.68,4,5.64a67.48,67.48,0,0,1,3.3,6.1c.13.26.27.53.37.78a5.9,5.9,0,0,0,.33.68,12.63,12.63,0,0,1,.85,1.69,3.93,3.93,0,0,1,.3,2.16,3.06,3.06,0,0,1-1,1.75l-.35-.22a2.74,2.74,0,0,0,0-1.51,2.89,2.89,0,0,0-.75-1.08c-.34-.34-.76-.67-1.2-1.09a8.1,8.1,0,0,1-.7-.72c-.21-.22-.38-.44-.58-.66a67.57,67.57,0,0,1-4.28-5.46c-1.32-1.89-2.44-3.91-3.58-5.91-.57-1-1.14-2-1.65-3.06s-1-2.11-1.45-3.17a30.07,30.07,0,0,0-3.4-6c-1.37-1.85-3.19-3.41-4.68-5.19a21.28,21.28,0,0,1-2-2.83c-.6-1-1.17-2-1.7-3s-1-2.08-1.47-3.17a24.11,24.11,0,0,1-1.15-3.39Z" transform="translate(-523.99 -122.51)"/><path class="cls-2" d="M802.53,663c-1.9,1.45-3.68,2.71-5.46,4-.89.66-1.79,1.31-2.7,1.94a22.72,22.72,0,0,1-2.87,1.8c-2,1.06-4.3,1.83-6.34,2.9a27.72,27.72,0,0,0-5.61,3.92c-.87.75-1.71,1.54-2.61,2.25s-1.8,1.4-2.71,2.07c-1.83,1.35-3.65,2.73-5.59,3.91a62.54,62.54,0,0,1-6,3.24,41.5,41.5,0,0,1-6.52,2.51l-.23-.35a45.83,45.83,0,0,1,5-4.9,60.64,60.64,0,0,1,5.42-4.22,64.32,64.32,0,0,1,5.89-3.5c1-.55,2-1.11,3.06-1.59s2.13-.91,3.19-1.36a30.88,30.88,0,0,0,6.11-3.13c1.87-1.26,3.34-3.1,5.07-4.61a18.87,18.87,0,0,1,2.8-2,28,28,0,0,1,3.11-1.66,16.56,16.56,0,0,1,6.95-1.62Z" transform="translate(-523.99 -122.51)"/><path class="cls-2" d="M921.24,762.23a17.59,17.59,0,0,1,.37,5.27,17.82,17.82,0,0,1-.93,5c-.61,1.61-1.63,3.13-2.11,4.76a16.56,16.56,0,0,0-.65,5.08c0,.86,0,1.74-.06,2.6s-.17,1.71-.29,2.56a37.17,37.17,0,0,1-1,5,30.09,30.09,0,0,1-4.49,9.38l-.4-.11a33.77,33.77,0,0,1,.58-10.34,40.4,40.4,0,0,1,1.43-4.87,31.83,31.83,0,0,1,2-4.76,16.05,16.05,0,0,0,1.56-4.86c.24-1.68-.06-3.48,0-5.19a11.75,11.75,0,0,1,.41-2.51,23.59,23.59,0,0,1,.74-2.44,18,18,0,0,1,2.39-4.71Z" transform="translate(-523.99 -122.51)"/><path class="cls-2" d="M842.9,337.85a29.25,29.25,0,0,1,4.48,5.08c.64.91,1.25,1.83,1.82,2.78a19,19,0,0,1,1.52,2.94c.85,2.06,1.35,4.31,2.32,6.3a26.85,26.85,0,0,0,3.66,5.54c.69.88,1.43,1.73,2.08,2.63s1.27,1.82,1.88,2.74c1.22,1.85,2.44,3.7,3.47,5.65a59,59,0,0,1,2.74,6.06,41.65,41.65,0,0,1,2,6.48l-.36.2a41.05,41.05,0,0,1-4.49-5.07,59.14,59.14,0,0,1-3.75-5.49c-1.14-1.89-2.08-3.9-3-5.9-.47-1-1-2-1.36-3s-.77-2.1-1.16-3.15a27.58,27.58,0,0,0-2.84-6c-1.19-1.86-2.85-3.46-4.17-5.25a19.07,19.07,0,0,1-1.72-2.83c-.52-1-1-2-1.43-3a29.18,29.18,0,0,1-2-6.47Z" transform="translate(-523.99 -122.51)"/><path class="cls-2" d="M1187.83,437.45a29.16,29.16,0,0,1-5.14,4.41c-.92.63-1.85,1.23-2.8,1.78a20.44,20.44,0,0,1-3,1.48c-2.07.82-4.33,1.29-6.33,2.23a27.46,27.46,0,0,0-5.59,3.57c-.89.69-1.75,1.41-2.66,2.05s-1.83,1.25-2.76,1.84a65.78,65.78,0,0,1-5.7,3.39,59,59,0,0,1-6.09,2.65,41,41,0,0,1-6.5,1.91l-.2-.36a40.82,40.82,0,0,1,5.13-4.42,59.11,59.11,0,0,1,5.54-3.68c1.91-1.11,3.93-2,5.94-2.94,1-.45,2-.93,3-1.32s2.11-.74,3.16-1.12a27.27,27.27,0,0,0,6-2.75c1.88-1.16,3.5-2.8,5.31-4.1a19.91,19.91,0,0,1,2.85-1.68c1-.5,2-1,3-1.38a29.21,29.21,0,0,1,6.49-1.92Z" transform="translate(-523.99 -122.51)"/><path class="cls-2" d="M626.54,773.54a29.4,29.4,0,0,1-4.84,4.76q-1.29,1-2.67,2a20.41,20.41,0,0,1-2.86,1.68c-2,1-4.24,1.59-6.17,2.68a27.27,27.27,0,0,0-5.34,4c-.84.74-1.65,1.53-2.51,2.23s-1.75,1.37-2.64,2c-1.78,1.32-3.56,2.65-5.46,3.79-.95.56-1.91,1.1-2.9,1.61l-1.49.76-.76.35c-.23.11-.59.29-.85.39-2.26.89-3.84.89-4,3.43l-.4.11a4,4,0,0,1-.59-1.81,3.55,3.55,0,0,1,.61-2.07,6.43,6.43,0,0,1,1.4-1.48c.48-.39.95-.74,1.35-1l1.21-1,1.31-1c.88-.67,1.78-1.33,2.69-2,1.83-1.24,3.79-2.29,5.74-3.35,1-.53,1.94-1.08,3-1.54s2.06-.89,3.09-1.34a27.74,27.74,0,0,0,5.85-3.17c1.8-1.3,3.3-3,5-4.47a19.56,19.56,0,0,1,2.74-1.88c1-.57,1.92-1.1,2.92-1.59a29,29,0,0,1,6.36-2.38Z" transform="translate(-523.99 -122.51)"/><path class="cls-2" d="M1190.47,895.77a23.87,23.87,0,0,1,2.69,2.39c.84.83,1.61,1.71,2.36,2.6s1.46,1.82,2.13,2.76a21.39,21.39,0,0,1,1.84,3c1.07,2.08,1.8,4.38,3,6.37a30.58,30.58,0,0,0,4.26,5.52c.8.86,1.63,1.7,2.38,2.59s1.47,1.81,2.19,2.71c1.44,1.82,2.89,3.63,4.15,5.57.63,1,1.2,1.91,1.82,3a15.72,15.72,0,0,1,1.45,3.54,24.57,24.57,0,0,1,.86,7.2l-.4.11c-1.31-2-2.32-4.15-3.47-6a24.6,24.6,0,0,0-1.8-2.59c-.68-.82-1.44-1.8-2.11-2.72-1.38-1.88-2.56-3.89-3.75-5.9-.6-1-1.18-2-1.71-3.05s-1-2.12-1.5-3.18a30.11,30.11,0,0,0-3.48-6c-1.4-1.85-3.24-3.41-4.76-5.18a21.51,21.51,0,0,1-2-2.83c-.62-1-1.2-2-1.75-3s-1.06-2.08-1.51-3.18a21.89,21.89,0,0,1-1.19-3.39Z" transform="translate(-523.99 -122.51)"/><path class="cls-2" d="M738.79,160a5.1,5.1,0,0,1,3.78.9,10.73,10.73,0,0,1,2.66,2.78c.68,1,1.3,1.91,1.9,2.9a22.26,22.26,0,0,1,1.6,3.06c.89,2.14,1.44,4.47,2.46,6.53A29.58,29.58,0,0,0,755,182c.72.92,1.48,1.81,2.16,2.74s1.32,1.9,2,2.86c1.26,1.93,2.54,3.85,3.62,5.88a69,69,0,0,1,2.88,6.3c.9,2.19,1.25,4.07,3.42,5.12l-.06.42a4.45,4.45,0,0,1-1.94-.15,5.57,5.57,0,0,1-1.78-1,15.94,15.94,0,0,1-2.5-2.8,67,67,0,0,1-3.9-5.72c-1.19-2-2.17-4.06-3.17-6.13-.49-1-1-2.08-1.44-3.15s-.82-2.18-1.23-3.27a29.75,29.75,0,0,0-3-6.23c-1.24-1.94-3-3.62-4.32-5.49a20.77,20.77,0,0,1-1.8-3c-.53-1-1-2.07-1.49-3.1a19.58,19.58,0,0,0-1.37-2.79,6.48,6.48,0,0,0-2.31-2.09Z" transform="translate(-523.99 -122.51)"/><path class="cls-2" d="M1365.93,340.72a27.21,27.21,0,0,1-5,4.3c-.89.61-1.79,1.19-2.72,1.73a18.89,18.89,0,0,1-2.89,1.42c-2,.78-4.22,1.21-6.16,2.12a26,26,0,0,0-5.44,3.47c-.86.66-1.7,1.37-2.58,2s-1.79,1.21-2.69,1.79c-1.82,1.15-3.62,2.32-5.54,3.28a57.92,57.92,0,0,1-5.89,2.52,12.86,12.86,0,0,1-3.4,1.05,4.33,4.33,0,0,1-2-.25,3.92,3.92,0,0,1-1.48-1.08l.22-.36c2.27.54,3.2-.78,5-2.2a54.72,54.72,0,0,1,5.43-3.59,60.6,60.6,0,0,1,5.78-2.83c1-.44,2-.9,3-1.27s2-.7,3.08-1.06a25.54,25.54,0,0,0,5.88-2.64c1.83-1.13,3.4-2.73,5.16-4a19.33,19.33,0,0,1,2.77-1.63q1.44-.72,2.94-1.32a27.34,27.34,0,0,1,6.33-1.81Z" transform="translate(-523.99 -122.51)"/><path class="cls-2" d="M977.83,148.52a3.56,3.56,0,0,1,1.8,2.63,8,8,0,0,1,.09,1.61,6.36,6.36,0,0,1-.05.77l0,.36a2.26,2.26,0,0,0,0,.26c0,.71.34,1.51.43,2.74a5.29,5.29,0,0,1,0,1,4.76,4.76,0,0,1-.1.52c0,.12,0,.18,0,.27a5,5,0,0,0,0,1,20,20,0,0,0,1.81,4.81,11,11,0,0,1,.91,3.24,6,6,0,0,1-.85,3.78l-.25.42-.18.24c-.11.17-.25.33-.35.5l-.31.53-.28.56a12.2,12.2,0,0,0-.88,2.47c-.45,1.76-.62,3.71-1,5.66-.08.49-.19,1-.31,1.47l-.2.72-.18.67a11.87,11.87,0,0,0-.36,2.72,21.31,21.31,0,0,0,.68,5.53,52.78,52.78,0,0,1,1.14,5.78,12.28,12.28,0,0,1,.12,1.59,4.2,4.2,0,0,1-.67,2.35,4,4,0,0,1-.94.95l-.33.24c-.06,0-.14.1-.2.16a2.56,2.56,0,0,0-.56.62,1.77,1.77,0,0,0-.17,1.32,6.26,6.26,0,0,0,.28,1l.49,1.45a28.06,28.06,0,0,1,1.24,6,51,51,0,0,1-.43,11.81c-.53,3.84-1.21,7.56-1.89,11.38h-.42a73,73,0,0,1-1-11.55c-.06-1.91-.11-3.79-.21-5.65s-.27-3.68-.5-5.47a46.39,46.39,0,0,0-1-5.28l-.35-1.29a10,10,0,0,1-.38-1.83,6.4,6.4,0,0,1,.14-2.11,5.36,5.36,0,0,1,1-2,6.54,6.54,0,0,1,1.47-1.38l.39-.25.19-.12.08,0q.09,0,.09,0s.09,0,.13-.36.06-.85.08-1.28c.06-1.79,0-3.69-.07-5.64a40.37,40.37,0,0,1,.17-5.91,19.52,19.52,0,0,1,.55-2.94l.2-.72.17-.65a10.39,10.39,0,0,0,.21-1.36c.19-1.84,0-3.74,0-5.77a14.82,14.82,0,0,1,.37-3.12,9.22,9.22,0,0,1,.5-1.57c.09-.26.22-.5.33-.76l.18-.37.08-.23a3.09,3.09,0,0,0,.22-1.76,12.3,12.3,0,0,0-.65-2.26,16.8,16.8,0,0,1-1.61-6.08,7.07,7.07,0,0,1,.3-1.83l.13-.42a1.08,1.08,0,0,0,.08-.19,2.33,2.33,0,0,0,.1-.45,22.14,22.14,0,0,1,.16-3,3.69,3.69,0,0,1,.11-.45l.12-.34.21-.64a5.78,5.78,0,0,0,.29-1.25,3,3,0,0,0-.6-2.38Z" transform="translate(-523.99 -122.51)"/><path class="cls-2" d="M1078.2,185a12,12,0,0,1,.09,4.34,15.08,15.08,0,0,1-.42,2,7.89,7.89,0,0,1-.75,1.92,39,39,0,0,0-2.3,3.55,10.49,10.49,0,0,0-.84,4,20.83,20.83,0,0,1-.45,4.14,27.8,27.8,0,0,1-.93,4,24.43,24.43,0,0,1-4,7.33l-.41-.09a19.21,19.21,0,0,1,.19-8.49,23.2,23.2,0,0,1,1.45-3.88,18.18,18.18,0,0,1,2-3.67,11,11,0,0,0,1.72-3.75,39.36,39.36,0,0,0,.28-4.23,8,8,0,0,1,.54-2,17.21,17.21,0,0,1,.85-1.86,12.66,12.66,0,0,1,2.6-3.47Z" transform="translate(-523.99 -122.51)"/><path class="cls-2" d="M624,473.63a12.79,12.79,0,0,1-4.24.36,14.57,14.57,0,0,1-2-.25,6.91,6.91,0,0,1-1.93-.57,38.24,38.24,0,0,0-3.7-1.92,10.56,10.56,0,0,0-4-.43,18.5,18.5,0,0,1-4.15-.12,21.22,21.22,0,0,1-4-.76,17.69,17.69,0,0,1-7.21-4.32l.14-.4a25.59,25.59,0,0,1,8.22.43,26.41,26.41,0,0,1,3.81,1.23,20.4,20.4,0,0,1,3.72,1.72,10.31,10.31,0,0,0,3.84,1.34c1.34.17,2.8-.19,4.18-.15a11.24,11.24,0,0,1,3.93,1,11.46,11.46,0,0,1,3.58,2.39Z" transform="translate(-523.99 -122.51)"/><path class="cls-2" d="M1334.45,673.45a11,11,0,0,1-4.08.22,13.25,13.25,0,0,1-1.9-.34,6.52,6.52,0,0,1-1.8-.67c-1.15-.63-2.17-1.65-3.36-2.15a9.43,9.43,0,0,0-3.8-.67,18,18,0,0,1-3.91-.34,21.42,21.42,0,0,1-3.74-.88,19,19,0,0,1-6.74-4.18l.12-.4a19,19,0,0,1,7.92.33,21.5,21.5,0,0,1,3.6,1.37,17.61,17.61,0,0,1,3.42,1.92,9.31,9.31,0,0,0,3.53,1.57,37.49,37.49,0,0,0,4,.11,6.84,6.84,0,0,1,1.86.45,14.7,14.7,0,0,1,1.77.79,11,11,0,0,1,3.25,2.47Z" transform="translate(-523.99 -122.51)"/><path class="cls-3" d="M726.88,498.73" transform="translate(-523.99 -122.51)"/><path class="cls-2" d="M1165.05,856.31a13,13,0,0,1,3.46,2.72,16.81,16.81,0,0,1,1.33,1.62,7.74,7.74,0,0,1,1,1.81c.54,1.31.73,2.84,1.39,4.07a10.87,10.87,0,0,0,2.67,3.24,19.69,19.69,0,0,1,3,3,26.1,26.1,0,0,1,2.49,3.34c.35.6.67,1.22,1,1.86.15.31.28.63.43,1a9.16,9.16,0,0,1,.44,1.11,7,7,0,0,1,.39,2.48,4,4,0,0,1-.78,2.35l-.41-.07a7.31,7.31,0,0,0-2.06-3.15l-.66-.66c-.24-.25-.48-.51-.71-.77-.46-.53-.89-1.08-1.3-1.64a26.08,26.08,0,0,1-2.07-3.64,20.14,20.14,0,0,1-1.59-4,11.28,11.28,0,0,0-1.89-3.76c-.86-1.09-2.18-1.89-3.17-2.91a8.1,8.1,0,0,1-1.24-1.68,17.35,17.35,0,0,1-.94-1.88,12.78,12.78,0,0,1-1.1-4.26Z" transform="translate(-523.99 -122.51)"/><path class="cls-2" d="M1264.55,279.07a7.37,7.37,0,0,1-1.5,2.5,5,5,0,0,1-2,1.51,14.82,14.82,0,0,0-2.7.68,4.44,4.44,0,0,0-1.79,2,8.49,8.49,0,0,1-1.59,2.26,9.61,9.61,0,0,1-2,1.79,9.09,9.09,0,0,1-5.52,1.32l-.23-.35a11,11,0,0,1,3.14-4.57,11.16,11.16,0,0,1,2.22-1.33,8.9,8.9,0,0,1,2.57-.92,4.7,4.7,0,0,0,2.37-1.23c.62-.63.92-1.7,1.5-2.44a3.11,3.11,0,0,1,1-.86,6.52,6.52,0,0,1,1.26-.56,5.57,5.57,0,0,1,3-.13Z" transform="translate(-523.99 -122.51)"/><path class="cls-2" d="M668.25,748.92a2,2,0,0,0-1.68.64,19.77,19.77,0,0,1-1.51,1.48,20.32,20.32,0,0,1-1.81,1.4,9.42,9.42,0,0,1-2,1.1c-1.43.58-3.07.81-4.43,1.51a13,13,0,0,0-3.62,2.81c-.55.55-1.07,1.14-1.65,1.65a20.6,20.6,0,0,1-1.78,1.46,29.1,29.1,0,0,1-3.73,2.62,27.24,27.24,0,0,1-4.17,1.92c-.73.26-1.47.52-2.24.72-.31.14,0-.14-.2-.1s-.19.14-.29.28c-.22.29-.43.68-.72,1l-.4-.13c-.07-.39-.18-.76-.22-1.21a2.3,2.3,0,0,1,.07-.79,1.34,1.34,0,0,1,.3-.54,2.51,2.51,0,0,0,.32-.33c.52-.6,1.07-1.15,1.63-1.7a30.68,30.68,0,0,1,3.56-2.9,29.9,29.9,0,0,1,4-2.19,22,22,0,0,1,2.09-1c.72-.29,1.48-.5,2.22-.76a13.27,13.27,0,0,0,4.12-2c1.22-.91,2.16-2.28,3.31-3.32a9.21,9.21,0,0,1,1.87-1.3,18.71,18.71,0,0,1,2.06-1,11.31,11.31,0,0,1,2.42-.81,3.08,3.08,0,0,1,1.59.17,2.24,2.24,0,0,1,1.09.93Z" transform="translate(-523.99 -122.51)"/><path class="cls-2" d="M773.85,217.44a11.89,11.89,0,0,1,3.24,2.75,17,17,0,0,1,1.21,1.62,7.3,7.3,0,0,1,.91,1.78c.44,1.29.53,2.79,1.09,4a10.34,10.34,0,0,0,2.42,3.22,19.13,19.13,0,0,1,2.74,3.05,23,23,0,0,1,2.23,3.33,20.5,20.5,0,0,1,2.3,7.94l-.36.2a20.46,20.46,0,0,1-5.77-5.9,22.73,22.73,0,0,1-1.8-3.59,18.44,18.44,0,0,1-1.3-3.88,10.07,10.07,0,0,0-1.62-3.69,38.57,38.57,0,0,0-2.93-2.93,7,7,0,0,1-1.11-1.67,14.58,14.58,0,0,1-.81-1.85,11.81,11.81,0,0,1-.8-4.17Z" transform="translate(-523.99 -122.51)"/><path class="cls-2" d="M891.3,891.5a12.69,12.69,0,0,1,1.24,6.47,19,19,0,0,1-1.25,6.29c-.83,2-2,3.74-2.63,5.73a23,23,0,0,0-1,6.14c-.08,1-.11,2.11-.23,3.15s-.28,2.07-.45,3.09a54.84,54.84,0,0,1-1.25,6.12c-.29,1-.61,2-1,3-.17.49-.36,1-.55,1.47l-.31.73c-.11.27-.24.57-.37.82a24.82,24.82,0,0,1-1.7,2.75,8.87,8.87,0,0,0-1.41,2.55l-.39.13a3.23,3.23,0,0,1-.36-1.77,12.89,12.89,0,0,1,.18-1.68c.17-1.08.42-2.12.58-3.05,0-.23.06-.43.09-.66l.1-.77.23-1.54c.17-1,.36-2,.58-3.05.45-2,1.1-4,1.74-6,.33-1,.63-2,1-3s.84-1.93,1.25-2.9a24.89,24.89,0,0,0,2-5.93c.39-2,.28-4.26.58-6.3a20.58,20.58,0,0,1,.62-3l.78-2.89c.52-1.94,1-3.82,1.55-5.94Z" transform="translate(-523.99 -122.51)"/><path class="cls-2" d="M1312,371.34a4.75,4.75,0,0,0-3.18,1.6l-.32.31-.42.37c-.29.24-.58.48-.88.7a7.94,7.94,0,0,1-1.94,1.11c-1.41.55-3,.7-4.35,1.29a13.24,13.24,0,0,0-3.64,2.45,21.76,21.76,0,0,1-3.52,2.69,27.11,27.11,0,0,1-12.2,4.64l-.22-.35a19.49,19.49,0,0,1,6.65-6.07,26.85,26.85,0,0,1,4-1.74,22.39,22.39,0,0,1,4.24-1.2,10.91,10.91,0,0,0,4-1.6,29.51,29.51,0,0,0,3.17-3.06,8.57,8.57,0,0,1,1.71-1.24c.29-.19.6-.35.91-.52l.48-.25a5.18,5.18,0,0,1,.58-.28,5.36,5.36,0,0,1,2.72-.5,3.26,3.26,0,0,1,2.34,1.28Z" transform="translate(-523.99 -122.51)"/><path class="cls-3" d="M697,278.41" transform="translate(-523.99 -122.51)"/><path class="cls-3" d="M681.9,264.2" transform="translate(-523.99 -122.51)"/><path class="cls-2" d="M694.1,270.9a61.48,61.48,0,0,1,7,6.56c1.07,1.16,2.12,2.35,3.13,3.56a42,42,0,0,1,2.86,3.77c1.76,2.64,3.22,5.52,5.1,8.06a55,55,0,0,0,6.33,7.07c1.13,1.11,2.3,2.19,3.4,3.33s2.17,2.3,3.24,3.47c2.12,2.34,4.26,4.65,6.24,7.1s3.88,5,5.72,7.53l2.73,3.86a37.53,37.53,0,0,0,2.81,3.71l-.16.39-.63-.23-.55-.3c-.38-.2-.7-.43-1.05-.65-.67-.47-1.33-.95-2-1.46s-1.26-1-1.86-1.54-1.21-1.05-1.78-1.61a95.27,95.27,0,0,1-6.66-6.83c-2.1-2.38-4-4.93-5.89-7.47-.94-1.27-1.89-2.54-2.78-3.85s-1.73-2.68-2.59-4a59.09,59.09,0,0,0-5.6-7.67c-2.08-2.38-4.58-4.43-6.77-6.73a42.14,42.14,0,0,1-3-3.63q-1.44-1.89-2.77-3.86a57.51,57.51,0,0,1-4.78-8.31Z" transform="translate(-523.99 -122.51)"/><path class="cls-2" d="M580.31,462.09a14.55,14.55,0,0,1-5.94,2,14.09,14.09,0,0,1-6.28-.53,28.3,28.3,0,0,1-5.5-3.18,13.23,13.23,0,0,0-5.49-1.9c-1-.16-2-.22-2.92-.37s-1.93-.31-2.9-.47a49.09,49.09,0,0,1-5.85-1.22,28.29,28.29,0,0,1-2.88-1c-1-.39-1.8-.81-2.69-1.22-1.77-.84-3.53-1.66-5.39-2.59l0-.42c4.17-.9,8.44.2,12.07,1,1.89.44,3.77,1,5.68,1.7,1,.33,1.91.64,2.84,1.07s1.85.93,2.75,1.43a60.75,60.75,0,0,0,5.39,2.87,15.44,15.44,0,0,0,5.6,1c.92.08,1.83.17,2.74.32l2.78.36c1.88.25,3.8.42,5.88.86Z" transform="translate(-523.99 -122.51)"/><path class="cls-2" d="M978.63,930.86a4.71,4.71,0,0,1,1.16,2.6,5.85,5.85,0,0,1,0,1.25,2.7,2.7,0,0,1-.32,1.17c-.4.75-1.2,1.41-1.46,2.17a3.58,3.58,0,0,0,.08,2.41,8.53,8.53,0,0,1,.51,2.42,10.71,10.71,0,0,1,.08,2.25c-.06.36-.14.72-.22,1.07s-.21.71-.32,1.06l-.9,2.38-.37.18a4.51,4.51,0,0,1-2-2.24,5.73,5.73,0,0,1-.45-1.32,5.5,5.5,0,0,1-.18-1.31,7.58,7.58,0,0,1,.45-2.51,6.81,6.81,0,0,1,1.15-2.32,4,4,0,0,0,.85-2.3,17.37,17.37,0,0,0-.64-2.53,4.2,4.2,0,0,1,.49-2.29,7,7,0,0,1,1.63-2.15Z" transform="translate(-523.99 -122.51)"/><path class="cls-2" d="M1261.92,818.45a5.55,5.55,0,0,1,1.15.34,3.44,3.44,0,0,1,.81.35,2.88,2.88,0,0,1,.59.39,1,1,0,0,1,.38.58c.13.5.12,1.35.5,1.77a1.74,1.74,0,0,0,1.63.43,4.53,4.53,0,0,1,1.83,0,4.42,4.42,0,0,1,1.67.49,4.69,4.69,0,0,1,1.38,1.33,5.49,5.49,0,0,1,.52,1,4.41,4.41,0,0,1,.17.58,3,3,0,0,1,.11.63l-.23.34a8.9,8.9,0,0,1-2.13.37,4.5,4.5,0,0,1-1.7-.19,4.65,4.65,0,0,1-1.45-.95,4.09,4.09,0,0,1-.67-.65,6.63,6.63,0,0,1-.57-.88,2.65,2.65,0,0,0-1.32-1.34c-.56-.23-1.47-.09-2.16-.38a2.4,2.4,0,0,1-1.23-1.65,3,3,0,0,1,.34-2.34Z" transform="translate(-523.99 -122.51)"/><path class="cls-3" d="M560.35,457.58" transform="translate(-523.99 -122.51)"/><path class="cls-3" d="M569.72,457.35" transform="translate(-523.99 -122.51)"/><path class="cls-2" d="M1054.7,264.34a4.41,4.41,0,0,1,.68,2.37,4.34,4.34,0,0,1-.12,1,1.91,1.91,0,0,1-.45.91c-.48.54-1.34.94-1.68,1.53a2.67,2.67,0,0,0-.21,2,6.27,6.27,0,0,1,.19,2.1,6.45,6.45,0,0,1-.38,2,6.71,6.71,0,0,1-3.17,3.24l-.39-.13a5.52,5.52,0,0,1,.16-6.22,5.43,5.43,0,0,1,1.43-1.73,2.86,2.86,0,0,0,1.11-1.76,13.15,13.15,0,0,0-.33-2.25,1.89,1.89,0,0,1,.23-1,4,4,0,0,1,.55-.87,4.69,4.69,0,0,1,2-1.42Z" transform="translate(-523.99 -122.51)"/><path class="cls-3" d="M984.39,965.51" transform="translate(-523.99 -122.51)"/><path class="cls-2" d="M977.7,956a9.41,9.41,0,0,1,1.21,1.54,1.66,1.66,0,0,1,.19,1.41c-.21.52-.8,1.13-.84,1.67a1.82,1.82,0,0,0,.75,1.48,4.18,4.18,0,0,1,1.14,1.36,3.9,3.9,0,0,1,.62,1.48,4.25,4.25,0,0,1-.18,1.7,5.51,5.51,0,0,1-1,1.92l-.4.1a5.59,5.59,0,0,1-1.78-1.21,3.37,3.37,0,0,1-1.1-3.11,3.77,3.77,0,0,1,.11-.87,6.92,6.92,0,0,1,.35-.92,2.1,2.1,0,0,0,.16-1.71c-.22-.51-1-1-1.29-1.53a1.35,1.35,0,0,1-.19-.87,3,3,0,0,1,.21-.94,2.78,2.78,0,0,1,.57-.92,2.25,2.25,0,0,1,1.07-.73Z" transform="translate(-523.99 -122.51)"/><path class="cls-3" d="M736.72,322.54" transform="translate(-523.99 -122.51)"/><path class="cls-3" d="M720.85,310.81" transform="translate(-523.99 -122.51)"/><text class="cls-4" transform="translate(371.75 397.79)">Bee<tspan x="-90.81" y="66">Conscious</tspan></text><path class="cls-5" d="M1025.93,634.92c4.29.67,8.78,2.92,9.61,7.32.3,1.6,0,2.66-1.34,2.93-5.09,1.06-7.47,5.57-11.18,8.35-1.66,1.24-3.72,2.52-5.69,2.67-5.25.41-10.64,1.29-15.74-1.1a3.8,3.8,0,0,0-1.48-.19c-.47,0-1,.09-2,.19,1.73,2,3.31,3.7,4.63,5.55,1.56,2.18,3.55,4.14,3.23,7.28-.37,3.66-3.24,5.94-6.68,4.64a47.61,47.61,0,0,1-7.17-3.84,25.28,25.28,0,0,0-4.51-2.57c.21.61.41,1.23.64,1.83,1.78,4.71,4.34,9.24,3.81,14.54-.24,2.44-.91,4.87,1.11,7,.41.42.34,1.31.54,2.18-3.28-1.2-5.34-4.45-4.92-7.31.63-4.3-.43-6.45-4.57-8.8a17.53,17.53,0,0,0-.71,2.29c-1.31,7.69-5.16,13.93-10.82,19.18-2.56,2.37-5.26,2.36-8.53,1.46-7.64-2.09-8.94-8.53-10.46-14.71-.82-3.36-.81-6.92-1.19-10.39-.07-.64-.17-1.27-.3-2.21a5.66,5.66,0,0,0-1.37.85c-1.84,2.23-4,4.3-5.32,6.83a11.59,11.59,0,0,0-.72,6.42c.37,2.84-1.46,4.26-2.89,6-.24.3-.86.29-1.31.43-.08-.43-.37-1.12-.2-1.26,2.6-2.16,1.94-4.94,1.36-7.59-.88-4,1.37-7,3.24-10.09l5.5-9.18L944.47,667c.69-.9,1.41-1.79,2.08-2.72q4.71-6.56,9.41-13.12l-.7-.51c-3.35,1.25-4.69,4.46-6.55,7.21a38.44,38.44,0,0,1,2-5.08,13.73,13.73,0,0,0,.53-2.67c-1,.11-2.25-.11-3,.4-2.62,1.79-5.47,3.14-7.55,5.87a41.65,41.65,0,0,0-4.38,8.11c-1.19,2.58-.74,3.81,2.17,3.75,2-.05,4-.83,6-1.28-.49.69-.83,1.63-1.49,2-2.41,1.48-6.66,1.17-8.49-.46-1.37-1.22-1.52-5.3-.31-7.8,1-2.15,2.06-4.3,3.33-7-1.43.47-2.4.86-3.41,1.1a33.89,33.89,0,0,1-16.77-.28c-3.3-.87-5.28-3.2-6.79-6.15a6.08,6.08,0,0,0-2.57-2.75c-4.37-2-6.23-4.12-6-7.48s3.58-6.6,7.5-7.44c2.68-.58,5.35-1.26,8.07-1.63a84.3,84.3,0,0,1,27.53,1.16c2.14.41,4.12,1.62,6.19,2.43a16.59,16.59,0,0,0,1.9.43c-1.24-4.78-3.44-8.54-7.32-11.13a4.24,4.24,0,0,0-2.57-.13c-1.38.16-2.63.27-3.19-1.32,3.19-2.38,6-.84,8.61.72,3.8,2.28,7.43,4.85,8,9.85a10.46,10.46,0,0,0,1,2.46c1.85-1.14,3-2,2.33-4.58-.9-3.26-.33-6.4,3-8.49a2.73,2.73,0,0,0,.67-2.59,57.31,57.31,0,0,0-4.21-5.3c3,0,4.3,2.15,5.9,3.87.82.88,1.9,2.2,2.8,2.15,1.92-.09,4.18.1,5.25-2.45a8.19,8.19,0,0,1,5.39-5.16,9.29,9.29,0,0,1,2.36,0l.13.84a13.89,13.89,0,0,1-1.59.69c-2.55.72-3.63,2.8-4.46,5-.17.47.49,1.61,1.06,2,4,2.42,4.74,4,3.92,8.72-.24,1.39-1.8,3.33.46,4.11s1.83-1.81,2.55-2.87c2.23-3.28,4.75-6.25,8.4-7.94a30.75,30.75,0,0,1,5.73-1.69c.31-.08,1.13.56,1.09.67-.2.67-.46,1.64-1,1.83a11.41,11.41,0,0,1-3.88.78,2.6,2.6,0,0,0-2.82,2.13,65.68,65.68,0,0,1-2.83,6.09c-.68,1.5,0,2.1,1.45,1.8a80.41,80.41,0,0,1,30.26-.14,49,49,0,0,1,6.27,2c-.82,0-1.66,0-2.48-.08-5.35-.56-10.69-1.23-16-1.69-2-.16-4,.28-6,.22-6-.18-11.39,2.06-17,4.65l5.11,1.09-.08.83-4.68,1.9,7.83,2-.17,1c-2.73,1.41-5.64-.45-8.54,0,.14.39.15.72.31.82,4.05,2.71,8.06,5.45,12.77,7,6.55,2.13,13.29,2.13,20,1.58a7.57,7.57,0,0,0,5-3.07c1.89-3,4.74-4.5,7.31-6.53A7.71,7.71,0,0,0,1032,641c.52-1.84-.93-3-2.44-3.92C1028.31,636.38,1027.12,635.64,1025.93,634.92ZM969,637l1.83,2.16c.2-1.19.35-2.14.52-3.14a13,13,0,0,0,1.64,1.71,1.48,1.48,0,0,0,1.33.19c.33-.2.66-1,.51-1.24-.83-1.43-1.52-3.52-2.78-4-4.55-1.72-8.27.92-7.34,5.26a16,16,0,0,0,3,.08c.49-.07.9-.69,1.34-1.06Zm-18.79-3.32c-2.41-.7-5.2-1.73-8.08-2.34a65.34,65.34,0,0,0-20.82-1.16,87,87,0,0,0-12,2.25,5.72,5.72,0,0,0-4.33,5c-.39,2.5,1.21,3.55,3,4.59a13.33,13.33,0,0,1,3,2.27,43.6,43.6,0,0,1,3.46,4.2c1.76,2.38,3.73,4.06,7,4,5.51-.16,11.1,1,16.46-1,2.85-1.11,5.57-2.58,8.38-3.8,1.74-.76,3.55-1.34,5.93-2.23l-3.17-.69c2.05-2.38-1.27-1.84-1.51-3.35l2.13-1.15c-4.5-2.34-8.68,1.17-13.12,1.08.13-4.9,4.26-2.59,6.45-3.88l-1.56-2,.41-.64a43.4,43.4,0,0,1,4.3,2c1.28.79,2.36.79,3.22-.4A10.58,10.58,0,0,0,950.21,633.66Zm10.86,42.71a30,30,0,0,0-2.73,3.51,4.5,4.5,0,0,0-.67,3c.11.45,1.68.7,2.61.76,1.79.12,3.62-.15,5.38.1,1.09.15,2.09,1,3.43,1.62a22.16,22.16,0,0,1,1.3,3.76c.13.74-.48,1.61-.75,2.41a6.62,6.62,0,0,1-2.14-1.2,15.27,15.27,0,0,1-1.5-3.17c-.34,1.82-.57,3.06-.86,4.65l-2-1.56c-2,2-1.86,2.81.63,3.67l1.86.68c3.26,1.24,5.72.34,7.54-2.77-1.84-1.41-2.68-6-1.84-8.25,1.3-.34,2.24-.66,3.21-.82.45-.07,1,.23,1.43.24.81,0,2.19.19,2.35-.16a10.06,10.06,0,0,0,.95-4c0-.3-1.46-.66-2.24-1l-3-1.32c-.91-.41-2.46-.25-2.88-.86-.79-1.15-.93-2.75-1.34-4.16l.58-.16,1.28,1.62,2.77-3.73c1.13,2.08,1.92,3.51,2.79,5.12.37-2.93.34-3,3-4a2.22,2.22,0,0,0,1.57-2.92c-.38-1.68-5.42-5.38-7.18-5.41-3.11,0-3.15-.09-2.24-3.05.62-.06,1.45.12,1.83-.21,1.46-1.28,2.77-2.72,4.56-4.52-1.25-1.06-2.72-2.17-4-3.45-2.3-2.24-2.25-2.28-4.47,0-1.17,1.22-2.06,1.33-2.65-.55a7.53,7.53,0,0,0-1.09-1.68,6.87,6.87,0,0,0-1.29,1.6c-.68,1.68-1.46,2.09-2.76.2-.4,1-1.18,2-1,2.69.74,2.22,1.83,4.33,2.78,6.47l.59-.21a9.4,9.4,0,0,1-.76-2.36c0-.52.58-1.06.9-1.59.54.45,1.45.84,1.54,1.36a7.9,7.9,0,0,1-.17,3.42c-.12.43-1.39,1-1.72.83-1.82-1.06-2.35.17-2.82,1.43-2.53-.26-5.33,1.38-5.72,3.27-.49,2.4.38,3.25,4.87,4.8l2.83-2.18,1.83,5.87c.18-1.9.31-3.27.43-4.64l1,0c.28,2.14.57,4.28.82,6.43,0,.17-.24.42-.43.56C966.14,677.66,961.93,677.26,961.07,676.37ZM989.4,654l-.56.68c.31.13.78.18.9.42a12.21,12.21,0,0,1,.68,1.84c-.68-.19-1.55-.18-2-.61-.63-.59-.8-1.7-1.45-2.25a4.67,4.67,0,0,0-2.72-1.23c-.47,0-1.46,1.43-1.32,2a12.78,12.78,0,0,0,2,4.74,40.62,40.62,0,0,0,6.12,6.51,25.53,25.53,0,0,0,7.43,4.42c1.5.54,3.79-.13,5.27-1,.72-.43.87-2.78.44-4-1.11-3-2.62-5.94-5.87-7.39C995.34,656.83,992.38,655.4,989.4,654Zm-19.27-28.59A17.46,17.46,0,0,0,972,623.7a7.79,7.79,0,0,0,.7-1.55,6.22,6.22,0,0,0-1.74-.23,33.43,33.43,0,0,0-3.38.79Zm6.74-1.76c-2.11,2-1.92,3,.67,4.62C979.1,626.55,978,625.23,976.87,623.67ZM965.26,626c-.88-.61-1.74-1.34-1.85-1.25a4,4,0,0,0-1.35,1.95c-.08.46.72,1.07,1.13,1.62Z" transform="translate(-523.99 -122.51)"/><path class="cls-5" d="M923.42,648.85l8.11,1.44,0,.71c-.91,0-1.81,0-2.71,0a25,25,0,0,1-4.34-.3c-.67-.14-1.19-1-1.78-1.55Z" transform="translate(-523.99 -122.51)"/><path class="cls-5" d="M919.87,637.63c.14,1.45.23,2.31.37,3.74l-4.11-2.23.14-1Z" transform="translate(-523.99 -122.51)"/><path class="cls-5" d="M990.28,639.51l9.2-1.12C998,640.87,992.76,641.81,990.28,639.51Z" transform="translate(-523.99 -122.51)"/><path class="cls-5" d="M1005.21,638.19c-1.38,2.76-2.8,2.48-4.31,1.74l-.17-.88Z" transform="translate(-523.99 -122.51)"/><path class="cls-5" d="M1008.33,650.37a32.78,32.78,0,0,1,3.18-1.62c.37-.14.94.25,1.42.39-.22.4-.37,1.06-.67,1.13-1.29.29-2.62.41-3.94.59Z" transform="translate(-523.99 -122.51)"/><path class="cls-5" d="M996.88,646.5c2.33-1.25,3.17.49,4.11,2.07Z" transform="translate(-523.99 -122.51)"/><path class="cls-5" d="M1015.91,640.62l-1.86,2.3L1013,642l2.14-2.15Z" transform="translate(-523.99 -122.51)"/><path class="cls-5" d="M969,636.94c-.75-.66-2.06-1.28-2.12-2-.09-1.06.46-2.5,2.08-2.11V637Z" transform="translate(-523.99 -122.51)"/><path class="cls-2" d="M663.94,649.2a32,32,0,0,0-6.83,1.67l-3.38,1.06c-1.13.35-2.28.66-3.46.9-2.36.46-4.87.61-7.2,1.31a31.91,31.91,0,0,0-6.68,2.93c-1.08.58-2.14,1.22-3.24,1.75s-2.21,1-3.34,1.52a57.74,57.74,0,0,1-6.89,2.61,39.24,39.24,0,0,1-7.38,1.37,15.1,15.1,0,0,1-1.91.08,15.82,15.82,0,0,1-1.94-.08,9,9,0,0,1-3.75-1.12l.12-.4a25,25,0,0,0,6.83-1.69l6.69-2.4c2.26-.78,4.59-1.4,6.91-2.07,1.17-.33,2.33-.67,3.52-.95s2.4-.5,3.6-.76a35.07,35.07,0,0,0,7-2c2.25-.94,4.34-2.36,6.61-3.36a18.71,18.71,0,0,1,3.53-1.16,26.5,26.5,0,0,1,3.7-.66,17,17,0,0,1,3.84-.06,8.23,8.23,0,0,1,3.76,1.16Z" transform="translate(-523.99 -122.51)"/><path class="cls-2" d="M644.2,361a1.46,1.46,0,0,1,.15.76,1,1,0,0,1-.72.75,3.66,3.66,0,0,1-1.52,0,14.35,14.35,0,0,1-2.53-.79,37.22,37.22,0,0,1-4.57-2.24c-1.46-.83-2.87-1.72-4.25-2.66a38.77,38.77,0,0,1-4-3c-2.51-2.18-4.75-4.71-7.31-6.81a64.68,64.68,0,0,0-8.16-5.64c-1.42-.87-2.87-1.7-4.26-2.6s-2.76-1.83-4.12-2.77c-2.72-1.88-5.45-3.73-8.05-5.75-5.18-4.09-10.14-8.37-15-13l.22-.36a57.83,57.83,0,0,1,9.07,4.37c2.89,1.67,5.68,3.48,8.38,5.4s5.24,4.07,7.77,6.2c1.27,1.06,2.54,2.12,3.77,3.24s2.4,2.29,3.61,3.44a60.62,60.62,0,0,0,7.59,6.38c2.71,1.9,5.75,3.36,8.56,5.09,1.4.87,2.75,1.81,4,2.8s2.61,2,3.9,3,2.57,2,3.84,3c.65.46,1.29,1,1.94,1.34a3.91,3.91,0,0,0,.89.43c.09,0,.11.08.19,0a1,1,0,0,0,.13-.47Z" transform="translate(-523.99 -122.51)"/></svg>